<?xml version="1.0" encoding="UTF-8"?>
<svg width="28px" height="38px" viewBox="0 0 28 38" version="1.1" xmlns="http://www.w3.org/2000/svg" xmlns:xlink="http://www.w3.org/1999/xlink">
    <!-- Generator: Sketch 52.6 (67491) - http://www.bohemiancoding.com/sketch -->
    <title>Group 2</title>
    <desc>Created with Sketch.</desc>
    <g id="Terra-Portfolio-2020" stroke="none" stroke-width="1" fill="none" fill-rule="evenodd">
        <g id="work" transform="translate(-1349.000000, -431.000000)" fill-rule="nonzero">
            <g id="Arrows" transform="translate(192.000000, 427.000000)">
                <g id="Group-2" transform="translate(1141.000000, 0.000000)">
                    <path d="M34.9724031,8.5931888 C36.7915893,8.22935156 38.3980964,9.80955722 38.0814205,11.6233018 L38.0689736,11.6897594 L32.8058157,38.0055488 C32.5207843,39.4307061 31.1344024,40.3549606 29.7092452,40.0699292 C28.3082431,39.7897288 27.3913079,38.4451955 27.6314104,37.0457857 L27.6448648,36.9733586 L32.1337613,14.5281379 L9.68880377,19.0172976 C8.28780173,19.297498 6.9242718,18.4090578 6.60767033,17.0249477 L6.59223321,16.9529173 C6.31203281,15.5519152 7.20047307,14.1883853 8.5845831,13.8717838 L8.65661358,13.8563467 L34.9724031,8.5931888 Z" id="Path" fill="#FFFFFF" transform="translate(22.331081, 24.331081) rotate(-315.000000) translate(-22.331081, -24.331081) "></path>
                    <path d="M34.9724031,6.5931888 C36.7915893,6.22935156 38.3980964,7.80955722 38.0814205,9.62330175 L38.0689736,9.68975936 L32.8058157,36.0055488 C32.5207843,37.4307061 31.1344024,38.3549606 29.7092452,38.0699292 C28.3082431,37.7897288 27.3913079,36.4451955 27.6314104,35.0457857 L27.6448648,34.9733586 L32.1337613,12.5281379 L9.68880377,17.0172976 C8.28780173,17.297498 6.9242718,16.4090578 6.60767033,15.0249477 L6.59223321,14.9529173 C6.31203281,13.5519152 7.20047307,12.1883853 8.5845831,11.8717838 L8.65661358,11.8563467 L34.9724031,6.5931888 Z" id="Path-Copy-2" fill="#D3B050" transform="translate(22.331081, 22.331081) rotate(-315.000000) translate(-22.331081, -22.331081) "></path>
                </g>
            </g>
        </g>
    </g>
</svg>