<?xml version="1.0" encoding="UTF-8"?>
<svg width="120px" height="82px" viewBox="0 0 120 82" version="1.1" xmlns="http://www.w3.org/2000/svg" xmlns:xlink="http://www.w3.org/1999/xlink">
    <!-- Generator: Sketch 52.6 (67491) - http://www.bohemiancoding.com/sketch -->
    <title>option 2</title>
    <desc>Created with Sketch.</desc>
    <g id="Pattern-Library" stroke="none" stroke-width="1" fill="none" fill-rule="evenodd">
        <g id="logo" transform="translate(-660.000000, -184.000000)" fill="#B4E1D8">
            <g id="option-2" transform="translate(660.000000, 184.000000)">
                <path d="M42.0806617,52.0445988 C44.234829,50.5636087 47.1706966,51.081178 48.6919701,53.1905856 L48.7554012,53.2806617 L58.88,68.00736 L69.0045988,53.2806617 C70.4855888,51.1264943 73.4121067,50.5584366 75.5878581,51.98321 L75.6793383,52.0445988 C77.8335057,53.5255888 78.4015634,56.4521067 76.97679,58.6278581 L76.9154012,58.7193383 L62.8354012,79.1993383 C60.9486364,81.9437236 56.9197104,81.9732331 54.9868775,79.2878669 L54.9245988,79.1993383 L40.8445988,58.7193383 C39.3427497,56.5348306 39.8961539,53.5464479 42.0806617,52.0445988 Z" id="v" fill-rule="nonzero"></path>
                <g id="T" fill-rule="nonzero">
                    <g id="Group">
                        <path d="M21.3374391,1.12615859 L2.13743906,13.9261586 C0.80208545,14.8163943 0,16.3151047 0,17.92 L0,37.12 C0,43.1025753 2.24636175,48.0283071 6.66469382,51.4431383 C10.7325513,54.5870954 16.4230726,56.2918842 23.6984992,56.7497773 C26.4625997,56.9237413 28.8,54.7288251 28.8,51.9592556 L28.8,5.12 C28.8,1.28626215 24.5273018,-1.00041655 21.3374391,1.12615859 Z" id="Path-6"></path>
                        <path d="M37.44,13.12 C40.0909668,13.12 42.24,15.2690332 42.24,17.92 C42.24,20.5374103 40.1450284,22.6655137 37.540425,22.7189703 L37.44,22.72 L11.84,22.72 C9.1890332,22.72 7.04,20.5709668 7.04,17.92 C7.04,15.3025897 9.13497164,13.1744863 11.739575,13.1210297 L11.84,13.12 L37.44,13.12 Z" id="Path-7"></path>
                    </g>
                </g>
                <rect id="O" x="81.6" y="4.8" width="38.4" height="51.2" rx="19.2"></rect>
            </g>
        </g>
    </g>
</svg>