<?xml version="1.0" encoding="UTF-8"?>
<svg width="57px" height="124px" viewBox="0 0 57 124" version="1.1" xmlns="http://www.w3.org/2000/svg" xmlns:xlink="http://www.w3.org/1999/xlink">
    <!-- Generator: Sketch 52.6 (67491) - http://www.bohemiancoding.com/sketch -->
    <title>option 1</title>
    <desc>Created with Sketch.</desc>
    <g id="Pattern-Library" stroke="none" stroke-width="1" fill="none" fill-rule="evenodd">
        <g id="logo" transform="translate(-216.000000, -163.000000)">
            <g id="option-1" transform="translate(207.000000, 163.000000)">
                <g id="T" transform="translate(8.848618, 0.000000)" fill="#D3B050" fill-rule="nonzero">
                    <path d="M15.4347826,2 C15.4347826,1.04991669 16.5000676,0.500308404 17.2712773,1.03085533 L17.3130435,1.06086957 L38.1826087,16.7130435 C38.4608187,16.921701 38.6312863,17.2421796 38.6503787,17.5872136 L38.6521739,17.6521739 L38.6521739,43.6676873 C38.6521739,44.3160216 38.1265951,44.8416003 37.4782609,44.8416003 C36.8484504,44.8416003 36.3344811,44.3456256 36.3056256,43.7229488 L36.3043478,43.6676873 L36.3043478,18.2388696 L17.7826087,4.34756522 L17.7826087,69.826087 C17.7826087,70.4558974 17.286634,70.9698667 16.6639571,70.9987223 L16.6086957,71 C15.9788852,71 15.4649159,70.5040253 15.4360603,69.8813484 L15.4347826,69.826087 L15.4347826,2 Z" id="Path-2"></path>
                    <path d="M37.4782609,68.6521739 C38.1080713,68.6521739 38.6220406,69.1481487 38.6508962,69.7708255 L38.6521739,69.826087 L38.6521739,95.9130435 C38.6521739,112.235553 43.2168829,120.333077 52.2769155,120.804238 L52.4550435,120.811739 L53.1497302,120.826246 C54.6812303,120.851422 54.6830702,123.112397 53.1917132,123.172686 L53.1304348,123.173913 C52.9055801,123.173913 52.6829892,123.170191 52.4626615,123.162752 L52.3431304,123.157478 L51.6288881,123.136549 C27.9030449,122.331444 15.6854683,111.652248 15.4386004,91.327333 L15.4347826,90.6956522 C15.4347826,90.0473179 15.9603614,89.5217391 16.6086957,89.5217391 C17.2570299,89.5217391 17.7826087,90.0473179 17.7826087,90.6956522 C17.7826087,107.50873 26.1781626,117.226881 43.2804415,120.003773 L43.7493043,120.07713 L43.6225318,119.972514 C38.8104883,115.908727 36.3786115,108.007549 36.3060229,96.4491063 L36.3043478,95.9130435 L36.3043478,69.826087 C36.3043478,69.1777527 36.8299266,68.6521739 37.4782609,68.6521739 Z" id="Path-3"></path>
                    <path d="M55.8695652,31.4782609 C56.5178995,31.4782609 57.0434783,32.0038396 57.0434783,32.6521739 C57.0434783,33.2819843 56.5475035,33.7959537 55.9248267,33.8248092 L55.8695652,33.826087 L41.6521739,33.826087 C41.0038396,33.826087 40.4782609,33.3005082 40.4782609,32.6521739 C40.4782609,32.0223635 40.9742356,31.5083942 41.5969124,31.4795386 L41.6521739,31.4782609 L55.8695652,31.4782609 Z" id="Path-4"></path>
                    <path d="M12.4347826,31.4782609 C13.0831169,31.4782609 13.6086957,32.0038396 13.6086957,32.6521739 C13.6086957,33.2819843 13.1127209,33.7959537 12.4900441,33.8248092 L12.4347826,33.826087 L2,33.826087 C1.35166573,33.826087 0.826086957,33.3005082 0.826086957,32.6521739 C0.826086957,32.0223635 1.3220617,31.5083942 1.94473851,31.4795386 L2,31.4782609 L12.4347826,31.4782609 Z" id="Path-5"></path>
                </g>
                <g id="v" transform="translate(22.316149, 75.344768) rotate(9.000000) translate(-22.316149, -75.344768) translate(3.316149, 58.844768)" fill="#B4E1D8">
                    <path d="M-0.832614123,16.8757941 C4.71805481,12.3853338 10.0306232,10.1216212 15.105091,10.0846562 C20.1795589,10.0476912 25.3017731,12.3114038 30.4717337,16.8757941 C25.3705532,21.2758109 19.8417152,23.0936329 13.8852196,22.3292601 C10.1760914,21.8532828 5.27014683,20.0354608 -0.832614123,16.8757941 Z" id="Path-2-Copy-2" transform="translate(14.819560, 16.291586) rotate(51.000000) translate(-14.819560, -16.291586) "></path>
                    <path d="M14.4486901,17.6601703 C18.3244166,12.9991734 22.6543919,10.668675 27.438616,10.668675 C32.2228401,10.668675 36.76243,12.9991734 41.0573857,17.6601703 C36.573943,19.8724478 31.8233186,21.0093048 26.8055126,21.0707413 C22.232309,21.1267342 18.1133681,19.9898772 14.4486901,17.6601703 Z" id="Path-2-Copy-3" transform="translate(27.753038, 15.870694) rotate(-67.000000) translate(-27.753038, -15.870694) "></path>
                </g>
                <circle id="O" fill="#EE8A59" cx="49.7181835" cy="56.7826087" r="10.4347826"></circle>
            </g>
        </g>
    </g>
</svg>