<svg xmlns="http://www.w3.org/2000/svg" viewBox="0 0 745.52 586.9"><g id="design"><rect x="261.55" y="61.84" width="91.99" height="64.2" rx="10.3" style="fill:#ee8a59"/><path d="M880.78,297.28c-2-3.5-5.38-3.5-7.42,0l-15.68,26.85c-2,3.5-.4,6.36,3.64,6.36h31.51c4,0,5.69-2.86,3.65-6.35Z" transform="translate(-556.66 -228.69)" style="fill:#fff"/><path d="M886.2,335.33H854.69c-2.28,0-4-.82-4.86-2.3s-.69-3.39.46-5.37L866,300.81c1.15-2,2.74-3.06,4.46-3.06s3.32,1.09,4.47,3.05l15.7,26.86c1.15,2,1.31,3.88.46,5.37S888.48,335.33,886.2,335.33ZM870.43,299.5c-1.08,0-2.13.78-2.95,2.19L851.8,328.55c-.83,1.4-1,2.68-.46,3.61s1.72,1.42,3.35,1.42H886.2c1.63,0,2.82-.5,3.34-1.42s.37-2.21-.45-3.61l-15.7-26.86C872.57,300.28,871.52,299.5,870.43,299.5Z" transform="translate(-556.66 -228.69)" style="fill:#171a1e"/><path d="M897,349.51H836.28a12.46,12.46,0,0,1-12.45-12.45V296a12.47,12.47,0,0,1,12.45-12.46h68.83A12.47,12.47,0,0,1,917.57,296V329.8a.88.88,0,0,1-1.75,0V296a10.72,10.72,0,0,0-10.71-10.71H836.28A10.72,10.72,0,0,0,825.57,296v41a10.72,10.72,0,0,0,10.71,10.71H897a.87.87,0,0,1,0,1.74Z" transform="translate(-556.66 -228.69)" style="fill:#171a1e"/><rect x="437.8" y="1" width="203.96" height="120.76" rx="20.03" style="fill:#f4c2ae"/><line x1="472.38" y1="31.56" x2="595.61" y2="31.56" style="fill:none;stroke:#171a1e;stroke-miterlimit:10;stroke-width:2px"/><line x1="499.3" y1="51.39" x2="622.53" y2="51.39" style="fill:none;stroke:#171a1e;stroke-miterlimit:10;stroke-width:2px"/><line x1="499.3" y1="71.22" x2="622.53" y2="71.22" style="fill:none;stroke:#171a1e;stroke-miterlimit:10;stroke-width:2px"/><line x1="471.06" y1="91.06" x2="594.29" y2="91.06" style="fill:none;stroke:#171a1e;stroke-miterlimit:10;stroke-width:2px"/><path d="M1198.43,330.43" transform="translate(-556.66 -228.69)" style="fill:none;stroke:#000;stroke-miterlimit:10;stroke-width:2px"/><path d="M1178.4,229.69a20.09,20.09,0,0,1,20,20" transform="translate(-556.66 -228.69)" style="fill:none;stroke:#000;stroke-miterlimit:10;stroke-width:2px"/><path d="M994.47,290.75v-41a20.08,20.08,0,0,1,20-20h76.17" transform="translate(-556.66 -228.69)" style="fill:none;stroke:#000;stroke-miterlimit:10;stroke-width:2px"/><path d="M1014.49,350.45" transform="translate(-556.66 -228.69)" style="fill:none;stroke:#000;stroke-miterlimit:10;stroke-width:2px"/><line x1="621.74" y1="121.76" x2="578.57" y2="121.76" style="fill:none;stroke:#000;stroke-miterlimit:10;stroke-width:2px"/></g><g id="terra"><path d="M895.51,492c-.25.62-14,24-14,24s.84,21.75,1.24,22.51-2.31,21.64-2.31,21.64-5.37,18.63-5.1,24.11,0,33,0,33,15.52,21.57,20.8,21.73c8.89.27,10.21-31.3,15.38-28.72,11.8,0,13.39,26,22.35,24.75,4.77-.66,11.12-17.8,17.45-17.76,5.64,0,17.17,19.8,23.86,17.4,16.18-5.79,23.67-30.76,23.67-30.76s-3.61-38.55-3.72-39.71,5.6-13.07,3.61-19.76-8.61-25-9.54-32.22-1.48-18.85-7.64-26.51S961,454.79,954.45,454s-19-8.42-34.4-3.31S895.51,492,895.51,492Z" transform="translate(-556.66 -228.69)" style="fill:#a37f20"/><path id="Neck_White" data-name="Neck White" d="M963.45,548.71a87.22,87.22,0,0,0,4.75,55.85c13.69.17,29.33,1.27,37.71,12.09,2.68,3.46-27.25,37.87-54.56,38.58-32.86.85-62.35-33.57-32.41-50.27,2.84.56,4.39-3.17,4.74-6a152.85,152.85,0,0,0-1.48-46.18C936.07,556.8,950.07,554.14,963.45,548.71Z" transform="translate(-556.66 -228.69)" style="fill:#fff"/><path d="M853.52,743a31.09,31.09,0,0,1-1.68,10.12,11.33,11.33,0,0,1-8.26.64c-31.52-10.93-29.81-8.5-39.54-36A31.2,31.2,0,0,1,853.52,743Z" transform="translate(-556.66 -228.69)" style="fill:#69b0a2"/><path id="Neck_White-2" data-name="Neck White" d="M963.45,548.71a87.22,87.22,0,0,0,4.75,55.85c13.69.17,29.33,1.27,37.71,12.09,2.57,3.32-28.55,34.4-54.56,35.34-33.74,1.22-62.26-29.79-32.41-47,2.84.56,4.39-3.17,4.74-6a152.85,152.85,0,0,0-1.48-46.18C936.07,556.8,950.07,554.14,963.45,548.71Z" transform="translate(-556.66 -228.69)" style="fill:none;stroke:#000;stroke-miterlimit:10;stroke-width:2px"/><path id="Face-white" d="M981.56,511.08a37.14,37.14,0,0,1-3.21,18.18C974,539.72,966.2,549.38,956.24,555c-14.63,8.23-29.14,2.61-43.39-6.49-8.61-5.5-12.75-16.84-15.76-26.52-1.63-5.2-3.67-10.16-4.78-15.53a6.22,6.22,0,0,1,0-3.23,6.34,6.34,0,0,1,2.62-2.79l6.37-4.48a22.06,22.06,0,0,0,5.86-5.27c1.6-2.36,2.22-5.24,2.73-8.05a175.45,175.45,0,0,0,2.31-17.84c.43-5.48.82-11.49,4.62-15.46,10.22-10.63,26.63-1.1,34.47,7.17,10.72,11.3,18.1,25.28,25.35,39.06A41.69,41.69,0,0,1,981.56,511.08Z" transform="translate(-556.66 -228.69)" style="fill:#fff"/><path id="Face-Line" d="M979.51,514.07a34.66,34.66,0,0,1-3,16.93c-4.08,9.74-11.31,18.74-20.59,24-13.62,7.67-27.14,2.43-40.4-6-8-5.12-11.87-15.68-14.69-24.69-1.51-4.85-3.41-9.47-4.44-14.47a5.77,5.77,0,0,1,0-3,6,6,0,0,1,2.44-2.61l5.93-4.16a20.42,20.42,0,0,0,5.46-4.92,19.36,19.36,0,0,0,2.54-7.49A165.82,165.82,0,0,0,914.88,471c.39-5.1.75-10.7,4.3-14.39,9.51-9.91,24.79-1,32.1,6.67,10,10.52,16.85,23.54,23.6,36.37A38.68,38.68,0,0,1,979.51,514.07Z" transform="translate(-556.66 -228.69)" style="fill:none;stroke:#000;stroke-miterlimit:10;stroke-width:2px"/><path id="hair" d="M857.41,630.42a18.22,18.22,0,0,0,9.09,13.43c8.57,4.92,19.2,1.54,24.12-6.35a17.37,17.37,0,0,0,4.76-5.8,2.31,2.31,0,0,0-.26-2.54,1.89,1.89,0,0,0-2.22-1.82c-7.46.84-14.29-5.17-13.09-12.93,1-6.73,7.09-11.49,8-18.36s-4.23-12.15-4.73-18.73c3-2.62,7.09-4.71,9.13-7.21,8.45-10.31-2.62-23.14-2.24-34.18.36-10.33,9.55-19.26,9.57-29.47,0-2.1.06-4.19.18-6.29,5.5-4.31,10.27-9.57,12.3-16.16,1.31-4.26,1.38-8.77,1.8-13.2s1.24-9,3.8-12.63a15,15,0,0,1,1.17-1.46,7.71,7.71,0,0,1,4.1-2.46,22.86,22.86,0,0,1,4.74-.32h.87a2.6,2.6,0,0,1,.74,0c6.64,2.77,13,6.49,17.83,11.95,9.41,10.73,8.37,26.26,15.75,38.09,3.55,5.71,8.55,9,14.84,11.13l2.58.86a49.26,49.26,0,0,1,6,6.47,28.63,28.63,0,0,1,3.68,6.9,57.92,57.92,0,0,1-.26,9.85c-1.5,14.39-7.48,30.18-.8,44.13,1.24,2.6,3.11,44.93,5.73,46.23,3,1.48,6.46,1.42,9.67,1a27.22,27.22,0,0,0,6.64-1.78,20.18,20.18,0,0,0,2.84-1c1.24-.56,2.73-1.42,4.33-2.3.36-.26.74-.5,1.16-.76,4.61-2.76,10-4.7,16-2.53,2.12.78,6.15,2.36,6.15,2.36a4.68,4.68,0,0,0,3.85-3.84c1-4.24-1.71.32-2.24-3.8-.64-5.06-4.15-8.7-8.63-10.78-4.7-2.17-9.93-3-14.35-5.81a21.58,21.58,0,0,1-4.87-4.2c-.28-3.08,5.58-40.13,6.56-43.15,2.87-8.83-5.78-17.74,3.45-41.27a2.23,2.23,0,0,0,0-1,14.09,14.09,0,0,0,1.68-8.61c-1.4-11.73-13.45-17.71-19.53-26.68-4.71-7-7.49-15.59-13.07-21.86a35.39,35.39,0,0,0-2-3.16,39.48,39.48,0,0,0-8.54-8.53c-8.23-7.8-16.81-15.75-27.48-19.56-11.62-4.15-24.48-2.92-36.46,0-3.72.9-7.54,2-10.37,4.62-3.51,3.19-4.22,6.57-3.29,9.68.09.3-8.39.71-11.84,3.75-10.37,9.13-20.15,19.75-14.93,38.58,1.9,6.86-5,10.38-6.83,17.31-2.5,3.76,3.23,8.65.37,12.12-3.75,4.54-7.35,9.38-9.35,15-2.08,5.84-1.64,11.79.44,17.57,2,5.44,5,10.47,6.74,16-1.38,2.66-3.42,5-5,7.49-2.14,3.24-3.86,7-3.56,10.93.3,4.18,2.44,7.84,4.58,11.34,1.82,3,3.86,6.07,4.26,9.59-2.18,4.91-5.28,9.45-8,14.15C859.46,616.39,856.53,623.33,857.41,630.42Zm158.5-30.81c3.33,2.94,7.27,4.56,11.45,6,4.45,1.47,9.55,3,12.19,7.21a10.35,10.35,0,0,1,1.3,8,10.47,10.47,0,0,0-.84-2.63c-3.42-7.4-12.27-8.28-18.61-11.92A11.75,11.75,0,0,1,1015.91,599.61Zm-14.43-127.79c-.86-2.56-1.7-5.17-2.6-7.77l.54,1c3.08,6,6,11.87,10.65,16.78s10.27,9.08,13.25,15.25a15.27,15.27,0,0,1,1.32,9.62,18.31,18.31,0,0,0-3.06-6.72c-2.3-3.14-5.23-5.59-8.11-8.15a34.83,34.83,0,0,1-7.48-9.08A64.24,64.24,0,0,1,1001.48,471.82Zm-9.62,64.83c.26,1.58.42,3.18.54,4.78.54,7.75-2.31,15.78-.36,23.28,8.23,31.65,2.26,60.34,4.72,59.8,2.77-.61,3.92,3.6,6.24,4.28a16.26,16.26,0,0,1-5.5-.28c-7-1.7-.92-26.63-6.76-47.66-1.21-4.36-2-23.55-.75-30.65A130.77,130.77,0,0,0,991.86,536.65Zm-56-81.69a33.79,33.79,0,0,1,22.2,18.3c5.44,11.49,6.11,24.84,14.41,35a47.2,47.2,0,0,0,4.24,4.48,24.28,24.28,0,0,1-7.7-4.28,26.34,26.34,0,0,1-6-8.05c-3.34-6.57-4.58-13.91-6.76-20.9-2.12-6.82-5.32-13-10.63-17.83A47,47,0,0,0,935.89,455Zm-52.82,119.9c.38-5.51,3.23-10.71,4.59-16a22.94,22.94,0,0,0,.6-9.54c-.6-3.55-2.26-6.79-3.2-10.25-1.75-6.47,1.48-12,4.94-17.25a68,68,0,0,0,7.4-13.55c-.56,4.94-3.08,9.74-5.22,14.15-2.66,5.48-4.82,11.1-3.94,17.27.92,6.46,4.3,12.31,4.94,18.83a14.77,14.77,0,0,1-1.48,8.87c-1.6,2.78-4.4,4.48-7,6.26C884.19,574,883.63,574.44,883.07,574.86Zm-3.82-71.36c-.36.86-.74,1.72-1.16,2.56-4,7.89-11.35,14.47-12.19,23.68-.42,4.46,1.26,8.51,3.12,12.45,1.76,3.74,3.79,7.71,2.69,11.91-1.57-4.1-3.67-8-5.31-12.07-2.64-6.62-3.28-13.21-.38-19.87C869.1,515.07,874.47,509.47,879.25,503.5ZM860,622c1.92-7.36,6.5-13.55,10.18-20.11a44.72,44.72,0,0,1-3.36,7.22c-1.92,3.62-4,7.35-4.7,11.45a18.23,18.23,0,0,0,12,20.22,17.05,17.05,0,0,0,11.45-.42A15.6,15.6,0,0,1,863.52,639C859.14,634.38,858.43,628,860,622Z" transform="translate(-556.66 -228.69)" style="fill:#d3b051"/><path d="M874.32,642.26a1.25,1.25,0,0,0,.59-2.35A20.59,20.59,0,0,1,866.47,612a46,46,0,0,1,2.48-3.93c2.1-3.1,4.27-6.3,4.44-10.21.21-4.66-2.34-8.43-4.81-12.08-2.29-3.39-4.46-6.6-4.43-10.35,0-4.48,2-8.87,4-13.12,2.32-5.13,4.72-10.43,3.94-16.17a30.59,30.59,0,0,0-2-6.76,25.34,25.34,0,0,1-1.91-6.92c-.47-5.89,2.22-10.51,5.07-15.4.91-1.56,1.85-3.18,2.7-4.86l.06-.13c3-6-5-5.57-3.12-12.25,1.53-5.36,5.83-13.05,6.7-18.44.75-4.7-.32-12.34.88-17,2.11-8.21,7.19-28.6,25.78-26.23.52.06.71-.76.63-1.27-.64-4.33,2.14-9.11,6.59-11.35s10.16-2.62,15.56-2.92c1.28-.07,2.55-.14,3.78-.23,8-.62,14-.35,19.37.86,6.12,1.37,11.76,4.87,16.48,8.1,9.68,6.64,16.94,13.39,22.21,20.63A57.78,57.78,0,0,1,998,464.9c.74,1.91,1.3,3.92,1.84,5.86a40.44,40.44,0,0,0,3.53,9.51c2.48,4.34,5.94,8,9.28,11.45,1.18,1.23,2.39,2.5,3.54,3.77,6.14,6.85,8.88,13,8.38,18.75-.39,4.35-4.87,8-4.92,12.57-.32,29.2-.63,41-4.83,65.67-.19,1.1.35,2.24.5,3.34.52,4,1.06,8.09,4.06,11.22,2.53,2.65,5.93,3.93,9.22,5.17,1,.35,1.9.71,2.82,1.1,2.23.94,7.44,3.61,7.63,8.13a1.22,1.22,0,0,0,1.3,1.19,1.25,1.25,0,0,0,1.2-1.3c-.26-5.94-6.49-9.2-9.16-10.32-.95-.41-1.93-.77-2.91-1.14-3.17-1.19-6.16-2.32-8.29-4.55-2.44-2.55-2.9-6.08-3.4-9.82-.15-1.14.92-17.28,3.72-30.17,1.71-7.93-2.51-32.15.33-37.31,2.35-4.27,4.79-8.68,5.22-13.56.56-6.49-2.38-13.24-9-20.64-1.17-1.3-2.4-2.59-3.59-3.83-3.24-3.39-6.59-6.89-8.92-11a38,38,0,0,1-3.29-8.93,63,63,0,0,0-1.92-6.1,60.19,60.19,0,0,0-7.43-13.52c-5.43-7.47-12.9-14.41-22.82-21.22-4.91-3.37-10.81-7-17.34-8.48-5.67-1.27-11.87-1.55-20.12-.91-1.21.09-2.45.16-3.72.23-5.65.31-11.5.63-16.54,3.17s-8.37,8-8,13.09c-18.71-3.18-24.1,18.9-26.27,27.38-1.23,4.77-.17,12.47-.93,17.23-.85,5.31-5.14,12.93-6.63,18.15-1.83,6.44,6.29,5.87,3.29,11.8l-.07.14c-.81,1.61-1.73,3.19-2.62,4.72-2.92,5-5.94,10.19-5.4,16.86a27.42,27.42,0,0,0,2.06,7.6,28.16,28.16,0,0,1,1.83,6.21c.69,5-1.46,9.78-3.74,14.81-2,4.48-4.13,9.12-4.18,14.13,0,4.53,2.45,8.21,4.86,11.77s4.56,6.73,4.39,10.57c-.15,3.2-2,6-4,8.92a47.64,47.64,0,0,0-2.62,4.15,23.1,23.1,0,0,0,9.48,31.31A1.22,1.22,0,0,0,874.32,642.26Z" transform="translate(-556.66 -228.69)" style="fill:#171a1e"/><path d="M896.65,503.84a1.26,1.26,0,0,0,.59-.15,30,30,0,0,0,15-21.19,61.16,61.16,0,0,0,.57-7c.18-4.33.36-8.42,2.21-12a13.63,13.63,0,0,1,9.17-7,1.25,1.25,0,0,0-.52-2.45,16.18,16.18,0,0,0-10.87,8.29c-2.11,4.07-2.3,8.63-2.49,13.05a56.93,56.93,0,0,1-.54,6.69,27.43,27.43,0,0,1-13.75,19.39,1.25,1.25,0,0,0,.6,2.35Z" transform="translate(-556.66 -228.69)" style="fill:#171a1e"/><path d="M1008.1,629.3c3.62,0,6.89-1.58,10.06-3.11a26.83,26.83,0,0,1,7.67-2.81,1.25,1.25,0,0,0-.36-2.48,29.24,29.24,0,0,0-8.4,3c-3.27,1.58-6.36,3.07-9.66,2.83-4-.28-7.89-3.36-10-7.84-2-4.2,5.58-8.73,5.58-23.48,0-9.32-8.35-33.7-8.44-35.32a151.53,151.53,0,0,1-.33-17.45c.49-10.4-1.76-18.36-6.7-23.67a39.48,39.48,0,0,0-4.94-4.26c-1-.79-13.91-18.08-16.84-26.34-.34-1-.68-1.92-1-2.89-2.82-8.06-5.74-16.41-11.1-23.27-7.93-10.14-18.84-12.82-26.14-11a1.25,1.25,0,1,0,.61,2.43c9-2.28,18.35,3.43,23.56,10.1s8,14.68,10.71,22.56c.34,1,.67,1.93,1,2.89,3,8.57,16.63,26.68,17.67,27.48a37.77,37.77,0,0,1,4.64,4c4.46,4.8,6.49,12.15,6,21.85a156.06,156.06,0,0,0,.33,17.72c.09,1.6,8.44,27.05,8.44,35.29,0,14.63-7.49,19.82-5.34,24.42,2,4.21,6.17,8.86,12.07,9.28Z" transform="translate(-556.66 -228.69)" style="fill:#171a1e"/><path d="M886.33,578.22a1.22,1.22,0,0,0,.63-.17c5.71-3.31,12.15-10.13,11.49-18.46a28.23,28.23,0,0,0-1.89-7.29l-.2-.55c-2.48-7-4.67-15.13-2.07-22.42a1.25,1.25,0,1,0-2.36-.84c-2.86,8-.56,16.69,2.08,24.1l.2.55a26.3,26.3,0,0,1,1.75,6.65c.57,7.16-5.17,13.15-10.26,16.1a1.25,1.25,0,0,0,.63,2.33Z" transform="translate(-556.66 -228.69)" style="fill:#171a1e"/><path d="M1110,618.1c-5.4,34.73-14.83,91.38-24.56,101.49-6.8,7.08-32.47,26.72-43.93,16.94l-4.1,76.31H869.24l-5.13-64.31a69.28,69.28,0,0,1-14.67,9.19,33.52,33.52,0,0,1-5.86,2c-11.66,2.7-23-2.78-40.18-33.55-3.63-6.51-7.53-14.15-11.74-23.09-10.19-21.61-12.76-49.14-13-73.16L809.49,617c8.59,4.08,27.45,53.85,31.85,69.89,4.25-21.95,4.06-29.57,11.89-52.9,4.8-14.33,34.66-40.51,57-21.12-1.13,6.4,4.17,12,9.52,15.38a53.45,53.45,0,0,0,35.78,7.55,30.41,30.41,0,0,0,12.2-4.18c8-5.19,11.87-15,15.21-24.23,20-9.9,48.84-.14,57.08,11.36,7.76,10.82,13.78,44.32,18,60.12,3.38-16.69,17.68-63.41,21.3-70.42Z" transform="translate(-556.66 -228.69)" style="fill:#b4e0d8"/><path d="M1085,715.56c-6.51,6.28-26.6,21-39,18.06a21.85,21.85,0,0,1,39-18.06Z" transform="translate(-556.66 -228.69)" style="fill:#b4e0d8"/><path d="M1085,717.56c-6.51,6.28-26.6,21-39,18.06a21.85,21.85,0,0,1,39-18.06Z" transform="translate(-556.66 -228.69)" style="fill:#69b0a2"/><path d="M849.73,753.45a31.57,31.57,0,0,1-.29,4.27,33.52,33.52,0,0,1-5.86,2c-11.66,2.7-23-2.78-40.18-33.55a31.19,31.19,0,0,1,46.33,27.28Z" transform="translate(-556.66 -228.69)" style="fill:#69b0a2"/><path d="M809.49,616.47l2.46.13s8-14.89,9.65-17.84.52-8-3.55-8.78-7.86,4.85-10,7.92S803,605,799.58,605s-12.88.27-23.46-3.07-12.25-5.25-16.77-5a8,8,0,0,0-6.79,3.89s-3.13-1-6.72,2.22-.51,5.86-.51,5.86-1.94,1.16-.74,3.94S749.9,617,754.72,619s11.26,2.1,15.62,4.48a85.94,85.94,0,0,1,8.57,5.53,108.54,108.54,0,0,0,16.57-5.42C805.57,619.39,809.49,616.47,809.49,616.47Z" transform="translate(-556.66 -228.69)" style="fill:#fff"/><path d="M816.31,589.07a6.71,6.71,0,0,1,6.79,4.23c.94,2.71-.45,5.26-1.67,7.51-.27.49-.53,1-.75,1.44a49.14,49.14,0,0,1-2.82,4.69c-2.12,3.3-6.62,7.38-7.29,10.41l-1.08-.88c.75-3.48,4.84-7,7-10.39a46.44,46.44,0,0,0,2.72-4.53c.24-.49.51-1,.79-1.5,1.12-2.06,2.27-4.19,1.57-6.23a5.15,5.15,0,0,0-6.22-3,7.71,7.71,0,0,0-3.5,2.7,34.42,34.42,0,0,0-2.56,3.86c-.64,1.06-1.3,2.14-2,3.17-1.86,2.57-4.27,5.19-8.32,5.18a81.41,81.41,0,0,1-21.49-2.62,53.87,53.87,0,0,1-6.09-2.29c-5.6-2.34-11.37-4.77-16.54-1.89a3,3,0,0,0-1.29,1.16,2.75,2.75,0,0,0,.52,2.64c1.75,2.36,4.48,3.92,7.12,5.43l.67.38a68,68,0,0,0,19.78,7.08.8.8,0,0,1-.23,1.58,59,59,0,0,1-11.13-3.09,58.08,58.08,0,0,1-9.22-4.19l-.65-.38c-2.66-1.51-5.66-3.23-7.62-5.86a4.24,4.24,0,0,1-.67-4.29,4.47,4.47,0,0,1,1.94-1.85c5.84-3.25,12.26-.57,17.93,1.82a54.44,54.44,0,0,0,5.92,2.22A79.88,79.88,0,0,0,799,604.17c3.27.07,5.32-2.16,7-4.51.7-1,1.34-2,2-3.06a35.87,35.87,0,0,1,2.69-4,9.29,9.29,0,0,1,4.25-3.21A6.27,6.27,0,0,1,816.31,589.07Z" transform="translate(-556.66 -228.69)" style="fill:#171a1e"/><path d="M750.46,600.14a7.88,7.88,0,0,1,1.63,0,.8.8,0,0,1-.2,1.58c-.19,0-4.92-.55-6.59,3.56a2.75,2.75,0,0,0,.24,2.44c2.44,4.44,14.67,9.44,29.74,12.17a.79.79,0,0,1,.64.92.77.77,0,0,1-.92.64c-13.11-2.36-27.73-7.29-30.86-13a4.27,4.27,0,0,1-.31-3.81A7.49,7.49,0,0,1,750.46,600.14Z" transform="translate(-556.66 -228.69)" style="fill:#171a1e"/><path d="M745.11,607.85a.79.79,0,0,1,.65,1.33,2.54,2.54,0,0,0-.44,2.25c.41,1.63,2.43,4.13,9.67,6.79a79.17,79.17,0,0,0,9.3,2.62c6.22,1.48,11.58,2.75,15.26,7.65a.8.8,0,0,1-.16,1.11.79.79,0,0,1-1.11-.16c-3.34-4.44-8.2-5.59-14.35-7.05a80,80,0,0,1-9.48-2.67c-6.38-2.34-10-5-10.69-7.94a4.19,4.19,0,0,1,.82-3.68A.78.78,0,0,1,745.11,607.85Z" transform="translate(-556.66 -228.69)" style="fill:#171a1e"/><path d="M890.23,683.68c-2.54,22-27.16,72.63-43.58,76.56-32.61,7.82-72.46-74.18-68-131.34l30.81-12.43c8.59,3.92,27.45,51.79,31.85,67.21,4.26-21.1,4.07-28.44,11.89-50.87,4.8-13.78,34.66-39,57-20.31-1.13,6.15,4.17,11.57,9.53,14.79a55.2,55.2,0,0,0,35.77,7.26,31.12,31.12,0,0,0,12.2-4c8-5,11.87-14.46,15.22-23.3,20-9.52,48.83-.13,57.08,10.93,7.75,10.4,13.78,42.62,18,57.81,3.37-16.05,17.67-61,21.29-67.72l30.74,9.28c-5.39,33.39-17,86.11-24.55,97.6-6.93,10.54-23.65,24.19-43.94,21.4-25.62-3.53-23.48-43.93-23.48-58" transform="translate(-556.66 -228.69)" style="fill:none;stroke:#000;stroke-miterlimit:10;stroke-width:2px"/><path d="M1078.47,607.84l-.86-2.2s-8-14.9-9.64-17.84-.52-8,3.54-8.78,7.87,4.85,10,7.92,5.1,7.08,8.51,7a75.66,75.66,0,0,0,23.46-3.07c10.58-3.33,12.25-5.25,16.77-5a8,8,0,0,1,6.78,3.9s3.13-1,6.73,2.22.51,5.86.51,5.86,1.94,1.16.74,3.94-5.32,4.21-10.13,6.16-11.27,2.1-15.62,4.48a83.43,83.43,0,0,0-8.58,5.53,143.84,143.84,0,0,0-16.56-5.42C1084.3,610,1078.47,607.84,1078.47,607.84Z" transform="translate(-556.66 -228.69)" style="fill:#fff"/><path d="M1073.26,578.1a6.7,6.7,0,0,0-6.79,4.24c-.94,2.71.44,5.26,1.67,7.51.26.49.52,1,.75,1.43a52.34,52.34,0,0,0,2.81,4.7c2.12,3.3,4.53,7,5.2,10.06l0,3.06a.8.8,0,1,0,1.6,0v-3.23c-.75-3.48-3.23-7.34-5.43-10.75a50.83,50.83,0,0,1-2.72-4.53c-.23-.49-.51-1-.78-1.5-1.12-2.06-2.28-4.19-1.57-6.23a5.13,5.13,0,0,1,6.21-3,7.66,7.66,0,0,1,3.5,2.7,34.38,34.38,0,0,1,2.57,3.85c.64,1.06,1.29,2.15,2,3.18,1.85,2.57,4.27,5.19,8.32,5.18a81.75,81.75,0,0,0,21.48-2.62,56.78,56.78,0,0,0,6.1-2.29c5.59-2.34,11.37-4.77,16.54-1.89a3,3,0,0,1,1.29,1.16,2.73,2.73,0,0,1-.53,2.64c-1.75,2.35-4.48,3.92-7.12,5.43l-.66.38a68.24,68.24,0,0,1-19.79,7.08.79.79,0,1,0,.24,1.57A69.08,69.08,0,0,0,1128.5,599l.66-.38c2.66-1.52,5.66-3.24,7.61-5.86a4.24,4.24,0,0,0,.67-4.29,4.36,4.36,0,0,0-1.94-1.85c-5.83-3.26-12.25-.57-17.92,1.81a51.25,51.25,0,0,1-5.92,2.22,79.45,79.45,0,0,1-21.07,2.56c-3.26.07-5.31-2.16-7-4.51-.71-1-1.35-2-2-3.07a35.86,35.86,0,0,0-2.7-4,9.14,9.14,0,0,0-4.24-3.21A5.88,5.88,0,0,0,1073.26,578.1Z" transform="translate(-556.66 -228.69)" style="fill:#171a1e"/><path d="M1139.11,589.18a7.88,7.88,0,0,0-1.63,0,.79.79,0,0,0-.69.89.81.81,0,0,0,.89.69c.19,0,4.92-.55,6.58,3.56a2.71,2.71,0,0,1-.23,2.44c-2.45,4.44-14.68,9.44-29.75,12.16a.8.8,0,0,0-.64.93.79.79,0,0,0,.93.64c13.11-2.37,27.73-7.29,30.85-13a4.28,4.28,0,0,0,.32-3.81A7.51,7.51,0,0,0,1139.11,589.18Z" transform="translate(-556.66 -228.69)" style="fill:#171a1e"/><path d="M1144.46,596.89a.8.8,0,0,0-.6.2.78.78,0,0,0,0,1.12,2.6,2.6,0,0,1,.44,2.26c-.42,1.63-2.43,4.13-9.68,6.78a76.38,76.38,0,0,1-9.3,2.63c-6.21,1.48-11.57,2.74-15.25,7.65a.78.78,0,0,0,.16,1.11.8.8,0,0,0,1.11-.16c3.34-4.44,8.19-5.59,14.35-7.05a82.07,82.07,0,0,0,9.48-2.68c6.38-2.34,10-5,10.68-7.93a4.15,4.15,0,0,0-.82-3.68A.78.78,0,0,0,1144.46,596.89Z" transform="translate(-556.66 -228.69)" style="fill:#171a1e"/><path d="M1037.43,812.84c2.92-18.31,5-59.36,7.21-77.76" transform="translate(-556.66 -228.69)" style="fill:none;stroke:#000;stroke-miterlimit:10;stroke-width:2px"/><path d="M864,744.8c-.66,16.94,2.53,51.4,5.25,68" transform="translate(-556.66 -228.69)" style="fill:none;stroke:#000;stroke-miterlimit:10;stroke-width:2px"/><path d="M925.33,490.87c2.15-.25,3.54.65,3.86,8,.35,8.15-1.93,9.52-3.85,9.39s-3.75-2.69-3.42-8.5S922.51,491.21,925.33,490.87Z" transform="translate(-556.66 -228.69)" style="fill:#171a1e"/><path d="M950.53,491c2.14-.28,3.55.62,3.94,7.93.43,8.15-1.84,9.53-3.76,9.41s-3.78-2.66-3.5-8.47S947.71,491.37,950.53,491Z" transform="translate(-556.66 -228.69)" style="fill:#171a1e"/><path d="M953.53,484.12a1.51,1.51,0,0,0-1-2.59c-2.93-.11-6.17.5-10,5.52a1.52,1.52,0,0,0,.31,2.12,1.55,1.55,0,0,0,2.12-.3c3-4.12,5.35-4.39,7.42-4.3A1.53,1.53,0,0,0,953.53,484.12Z" transform="translate(-556.66 -228.69)" style="fill:#171a1e"/><path d="M913.45,488.16a1.5,1.5,0,0,0,1.18-.62c7.34-10.11,16-5,16.4-4.79a1.52,1.52,0,1,0,1.59-2.58c-.12-.06-11.42-6.85-20.44,5.59a1.53,1.53,0,0,0,.33,2.12A1.57,1.57,0,0,0,913.45,488.16Z" transform="translate(-556.66 -228.69)" style="fill:#171a1e"/><path d="M952.62,528.44a1.52,1.52,0,0,0-1.18.62c-7.34,10.12-16,5-16.4,4.79a1.52,1.52,0,0,0-2.08.51,1.5,1.5,0,0,0,.49,2.07c.12.07,11.43,6.85,20.45-5.59a1.51,1.51,0,0,0-.34-2.11A1.48,1.48,0,0,0,952.62,528.44Z" transform="translate(-556.66 -228.69)" style="fill:#171a1e"/><path d="M929.41,494.87a5.29,5.29,0,0,1-2.68-.08,1.5,1.5,0,0,1,.87-2.87,2.38,2.38,0,0,0,1.42-.05,2.47,2.47,0,0,0,1.17-.88,1.5,1.5,0,0,1,2.46,1.73,5.53,5.53,0,0,1-2.63,2C929.82,494.77,929.61,494.82,929.41,494.87Z" transform="translate(-556.66 -228.69)" style="fill:#171a1e"/><path d="M953,494.35a4.87,4.87,0,0,1-1.61-.12,1.5,1.5,0,1,1,.7-2.92,2.12,2.12,0,0,0,2.38-1.11,1.5,1.5,0,1,1,2.69,1.33,5.18,5.18,0,0,1-2.42,2.36A5,5,0,0,1,953,494.35Z" transform="translate(-556.66 -228.69)" style="fill:#171a1e"/><path d="M938.44,506.28l-1.31,10.6a4.46,4.46,0,0,0,0,2c.57,1.75,2.84,2.12,4.68,2.18" transform="translate(-556.66 -228.69)" style="fill:none;stroke:#000;stroke-miterlimit:10;stroke-width:2px"/><circle cx="52.34" cy="264.07" r="29.12" style="fill:#69b0a2"/><path d="M661.89,500.89l-1.06,13a1.55,1.55,0,0,1-1.45,1.43l-10.32.61a1.55,1.55,0,0,1-.18-3.1l9-.53.84-10.29-8.76-2a1.57,1.57,0,0,1-1.19-1.3,34.23,34.23,0,0,0-8.58-18.08,1.57,1.57,0,0,1-.24-1.75l4-8L635.44,465l-6.08,6.6a1.54,1.54,0,0,1-1.72.39,33.87,33.87,0,0,0-19.94-1.62,1.57,1.57,0,0,1-1.64-.67l-4.93-7.49-9.33,4.42,2.68,8.57a1.55,1.55,0,0,1-.53,1.68,33.88,33.88,0,0,0-11.36,16.46,1.55,1.55,0,0,1-1.39,1.09l-9,.53-.83,10.28,8.75,2a1.54,1.54,0,0,1,1.2,1.29,34.21,34.21,0,0,0,8.57,18.09,1.53,1.53,0,0,1,.24,1.74l-4,8,8.49,5.87,6.09-6.61a1.56,1.56,0,0,1,1.72-.39,34,34,0,0,0,19.94,1.63,1.54,1.54,0,0,1,1.63.66L629,545l9.32-4.42L635.6,532a1.56,1.56,0,0,1,.52-1.69,33.56,33.56,0,0,0,7.49-8.23,1.55,1.55,0,0,1,2.61,1.69,37.06,37.06,0,0,1-7.34,8.31l2.76,8.85a1.54,1.54,0,0,1-.81,1.86l-11.77,5.58a1.55,1.55,0,0,1-2-.55l-5.1-7.74a37,37,0,0,1-19.71-1.61L596,545.33a1.55,1.55,0,0,1-2,.22l-10.71-7.4a1.54,1.54,0,0,1-.51-2l4.15-8.29A37.46,37.46,0,0,1,578.44,510l-9-2a1.55,1.55,0,0,1-1.21-1.64l1-13a1.57,1.57,0,0,1,1.46-1.43l9.27-.54a36.77,36.77,0,0,1,11.23-16.27l-2.77-8.85a1.56,1.56,0,0,1,.82-1.87L601,458.83a1.56,1.56,0,0,1,2,.55l5.1,7.74a37,37,0,0,1,19.7,1.61l6.29-6.82a1.56,1.56,0,0,1,2-.23l10.71,7.4a1.56,1.56,0,0,1,.51,2l-4.16,8.28a37.32,37.32,0,0,1,8.47,17.87l9,2a1.55,1.55,0,0,1,1.21,1.64Zm-44.45,29a26.42,26.42,0,1,0-10.75-1.24,1.55,1.55,0,0,0,1-3A23.32,23.32,0,1,1,633,518.53a23.1,23.1,0,0,1-15.79,8.3,1.56,1.56,0,1,0,.28,3.1Z" transform="translate(-556.66 -228.69)"/><path d="M944.49,342.73l-38.89-3.24a2.06,2.06,0,0,0-2,3.07l19.4,33.87a2.05,2.05,0,0,0,3.51.08l5.59-8.79a2.05,2.05,0,0,1,2.83-.63l21.67,13.8a2.06,2.06,0,0,0,2.83-.63l4.43-7a2,2,0,0,0-.63-2.83l-21.67-13.79a2.06,2.06,0,0,1-.62-2.84l5.07-8A2.06,2.06,0,0,0,944.49,342.73Z" transform="translate(-556.66 -228.69)" style="fill:#69b0a2"/><path d="M951.45,376.36a3.71,3.71,0,0,1-.66.24,2.81,2.81,0,0,1-2.08-.37l-21.66-13.8a1.36,1.36,0,0,0-1-.17,1.32,1.32,0,0,0-.84.59l-5.6,8.79a2.76,2.76,0,0,1-4.72-.12l-19.4-33.87a2.75,2.75,0,0,1,2.63-4.11L937,336.77a2.76,2.76,0,0,1,2.24,1.53,2.71,2.71,0,0,1-.14,2.7L934,349a1.35,1.35,0,0,0,.41,1.86l21.67,13.79a2.77,2.77,0,0,1,.85,3.81l-4.43,6.95A2.87,2.87,0,0,1,951.45,376.36Zm-26.39-15.25a2.77,2.77,0,0,1,2.74.14L949.47,375a1.37,1.37,0,0,0,1,.18,1.43,1.43,0,0,0,.85-.6l4.42-6.95a1.34,1.34,0,0,0-.41-1.86L933.67,352a2.76,2.76,0,0,1-.84-3.81l5.07-8a1.31,1.31,0,0,0,.07-1.31,1.33,1.33,0,0,0-1.1-.75L898,334.94a1.34,1.34,0,0,0-1.28,2l19.4,33.87a1.31,1.31,0,0,0,1.13.68,1.35,1.35,0,0,0,1.17-.62l5.59-8.79A2.79,2.79,0,0,1,925.06,361.11Z" transform="translate(-556.66 -228.69)" style="fill:#171a1e"/><path d="M1293.18,433.08H1084.9v-17.6a12.57,12.57,0,0,1,12.58-12.57h183.13a12.57,12.57,0,0,1,12.57,12.57Z" transform="translate(-556.66 -228.69)" style="fill:#69b0a2"/><path d="M1280.61,402.91v30.17h12.57v-17.6A12.57,12.57,0,0,0,1280.61,402.91Z" transform="translate(-556.66 -228.69)" style="fill:#a37f20"/><path d="M1280.61,551.26H1097.48a12.58,12.58,0,0,1-12.58-12.58V433.08h208.28v105.6A12.57,12.57,0,0,1,1280.61,551.26Z" transform="translate(-556.66 -228.69)" style="fill:#b4e0d8"/><path d="M1280.61,433.08V551.26a12.57,12.57,0,0,0,12.57-12.58V433.08Z" transform="translate(-556.66 -228.69)" style="fill:#d3b051"/><path d="M1092.9,468.78v-31.7" transform="translate(-556.66 -228.69)" style="fill:none;stroke:#000;stroke-miterlimit:10;stroke-width:2px"/><path d="M1301.18,532.55v13.13a12.57,12.57,0,0,1-12.57,12.58H1105.48a12.58,12.58,0,0,1-12.58-12.58V492.76" transform="translate(-556.66 -228.69)" style="fill:none;stroke:#000;stroke-miterlimit:10;stroke-width:2px"/><path d="M1301.18,437.08v59.09" transform="translate(-556.66 -228.69)" style="fill:none;stroke:#000;stroke-miterlimit:10;stroke-width:2px"/><path d="M1116.16,437.08H1092.9v-17.6a12.57,12.57,0,0,1,12.58-12.57h157" transform="translate(-556.66 -228.69)" style="fill:none;stroke:#000;stroke-miterlimit:10;stroke-width:2px"/><path d="M1288.61,406.91a12.57,12.57,0,0,1,12.57,12.57v17.6h-94.61" transform="translate(-556.66 -228.69)" style="fill:none;stroke:#000;stroke-miterlimit:10;stroke-width:2px"/><polyline points="616.52 239.18 595.08 260.62 614.52 280.06" style="fill:none;stroke:#000;stroke-miterlimit:10;stroke-width:2px"/><polyline points="660.58 280.06 682.02 258.62 662.58 239.18" style="fill:none;stroke:#000;stroke-miterlimit:10;stroke-width:2px"/><circle cx="226.05" cy="253.47" r="46.07" style="fill:#b4e0d8"/><path d="M763.33,475.49l-8.94,21.93a2.54,2.54,0,0,0,1.58,3.33l20.88,7.54" transform="translate(-556.66 -228.69)" style="fill:none;stroke:#d3b050;stroke-miterlimit:10;stroke-width:3px"/><path d="M790.24,500.24l7.82-19.19a2.22,2.22,0,0,0-1.38-2.92l-18.28-6.6" transform="translate(-556.66 -228.69)" style="fill:none;stroke:#d3b050;stroke-miterlimit:10;stroke-width:3px"/><line x1="647.89" y1="233.09" x2="629.21" y2="286.15" style="fill:none;stroke:#000;stroke-miterlimit:10;stroke-width:2px"/><path d="M1112.19,429.58a7.42,7.42,0,1,1,7.42-7.42A7.42,7.42,0,0,1,1112.19,429.58Zm0-13.88a6.46,6.46,0,1,0,6.46,6.46A6.47,6.47,0,0,0,1112.19,415.7Z" transform="translate(-556.66 -228.69)" style="fill:#171a1e"/><path d="M1133.61,429.58a7.42,7.42,0,1,1,7.42-7.42A7.43,7.43,0,0,1,1133.61,429.58Zm0-13.88a6.46,6.46,0,1,0,6.46,6.46A6.47,6.47,0,0,0,1133.61,415.7Z" transform="translate(-556.66 -228.69)" style="fill:#171a1e"/><path d="M1155.59,429.58a7.42,7.42,0,1,1,7.42-7.42A7.43,7.43,0,0,1,1155.59,429.58Zm0-13.88a6.46,6.46,0,1,0,6.46,6.46A6.47,6.47,0,0,0,1155.59,415.7Z" transform="translate(-556.66 -228.69)" style="fill:#171a1e"/><circle cx="220.77" cy="260.84" r="47.72" style="fill:none;stroke:#d3b050;stroke-miterlimit:10;stroke-width:2px"/></g><g id="plant"><path d="M664.34,761.63s-17.65-6.21-16-22,10.77-28.87,20.66-38.84,30.78-30,51.33-37c0,0-2.74,23.18-7.32,39.28s-10.31,39.24-23,51.88S664.34,761.63,664.34,761.63Z" transform="translate(-556.66 -228.69)" style="fill:#ee8a59"/><path d="M615.13,730.64s16.6-3.57,20.83-22.95-4.2-34.71-22.14-58.93-57.16-50.6-57.16-50.6.3,25.76.88,36.5,5,57.32,16.51,76.81S599.54,737.5,615.13,730.64Z" transform="translate(-556.66 -228.69)" style="fill:#f4c2ae"/><path d="M605,728.37c-11-3.24-20-13.88-26.58-31.83a1.1,1.1,0,1,1,2.07-.76c9.69,26.24,24.3,36.11,43.44,29.32,13.86-4.92,21.16-13.91,21.7-26.72,1.47-35-46.85-88.25-77.91-103.31-.09,5.25-.21,22.2,1.46,42.1a1.1,1.1,0,1,1-2.2.18,430.72,430.72,0,0,1-1.43-44,1.1,1.1,0,0,1,1.55-1c31.5,14.26,82.26,69.75,80.73,106.13-.58,13.81-8.37,23.47-23.16,28.71Q613.92,731,605,728.37Z" transform="translate(-556.66 -228.69)" style="fill:#171a1e"/><path d="M681,769.72a25.05,25.05,0,0,1-11-2.79c-10.24-5.06-15-12.8-14.26-23,2.1-27.74,46.75-67.34,72.48-75.5a.77.77,0,0,1,.78.15.78.78,0,0,1,.29.73c-.38,3.34-9.65,82.18-38.21,97.77A20.71,20.71,0,0,1,681,769.72Zm46.46-99.31c-25.5,8.88-68.08,46.92-70.1,73.64-.72,9.47,3.77,16.67,13.34,21.39,6.94,3.43,13.52,3.48,19.56.18C716.13,751.51,726.13,680.88,727.47,670.41Z" transform="translate(-556.66 -228.69)" style="fill:#171a1e"/><path d="M632.34,814.63a1.12,1.12,0,0,1-.79-1.07c1.33-111.7-38.49-180.74-38.89-181.43a1.1,1.1,0,0,1,1.9-1.12c.41.7,40.54,70.26,39.19,182.58a1.09,1.09,0,0,1-1.11,1.09A1.57,1.57,0,0,1,632.34,814.63Z" transform="translate(-556.66 -228.69)" style="fill:#171a1e"/><path d="M673.77,814.94a.84.84,0,0,1-.82-.7c-13.73-85.21,37.7-127.57,38.22-128a.83.83,0,1,1,1,1.29C711.69,688,661,729.76,674.59,814a.82.82,0,0,1-.69.94A.3.3,0,0,1,673.77,814.94Z" transform="translate(-556.66 -228.69)" style="fill:#171a1e"/><line x1="4.7" y1="585.3" x2="690.16" y2="585.3" style="fill:none;stroke:#000;stroke-miterlimit:10;stroke-width:2px"/></g><g id="curve_r"><path d="M712.93,390.38a15.65,15.65,0,1,1-3.61,11.43c0-.47-.06-.93-.06-1.39A15.53,15.53,0,0,1,712.93,390.38Zm25.69,8.88a13.75,13.75,0,0,0-24.22-7.65A13.74,13.74,0,0,0,716.08,411a13.74,13.74,0,0,0,22.59-10.5C738.67,400.07,738.65,399.67,738.62,399.26Z" transform="translate(-556.66 -228.69)" style="fill:#171a1e"/><path d="M706.76,420.61A106.93,106.93,0,0,0,702.89,431a1.27,1.27,0,0,1-1.24.84.7.7,0,0,1-.65-1,107.94,107.94,0,0,1,4-10.56,1.28,1.28,0,0,1,1.41-.69A.73.73,0,0,1,706.76,420.61Zm-6.87,20.76c-.86,3.45-1.62,7-2.25,10.42a1.26,1.26,0,0,1-1.14,1,.71.71,0,0,1-.81-.85c.64-3.5,1.41-7,2.28-10.54a1.33,1.33,0,0,1,1.48-.86A.7.7,0,0,1,699.89,441.37Zm-3.79,20.79c-.39,3.4-.66,6.86-.82,10.29a1.24,1.24,0,0,1-1,1.07.74.74,0,0,1-.94-.73c.16-3.46.43-7,.83-10.4a1.25,1.25,0,0,1,1.08-1,.91.91,0,0,1,.41,0A.69.69,0,0,1,696.1,462.16Zm-.9,20.46c.1,3.35.32,6.71.67,10a1.19,1.19,0,0,1-.89,1.15.77.77,0,0,1-1.08-.58c-.35-3.3-.58-6.7-.67-10.09a1.19,1.19,0,0,1,1-1.11,1,1,0,0,1,.54,0A.69.69,0,0,1,695.2,482.62Zm2.1,19.72c.6,3.19,1.34,6.38,2.2,9.48a1.1,1.1,0,0,1-.73,1.21.83.83,0,0,1-1.19-.41c-.87-3.13-1.62-6.36-2.23-9.58a1.16,1.16,0,0,1,.82-1.19,1,1,0,0,1,.67,0A.66.66,0,0,1,697.3,502.34ZM702.46,521c1.12,3,2.36,5.94,3.71,8.78a1,1,0,0,1-.56,1.27.89.89,0,0,1-1.28-.24c-1.36-2.88-2.63-5.87-3.75-8.89a1.08,1.08,0,0,1,.65-1.24,1,1,0,0,1,.8-.08A.66.66,0,0,1,702.46,521Zm8.16,17.15c1.58,2.69,3.3,5.36,5.13,7.94a1,1,0,0,1-.39,1.29,1,1,0,0,1-1.33-.07c-1.86-2.61-3.6-5.31-5.2-8a1,1,0,0,1,.48-1.28,1.14,1.14,0,0,1,.93-.15A.76.76,0,0,1,710.62,538.11Zm10.91,15.42c2,2.38,4.16,4.74,6.38,7a.88.88,0,0,1-.21,1.28,1,1,0,0,1-1.38.1c-2.25-2.29-4.42-4.68-6.45-7.09a.91.91,0,0,1,.3-1.28,1.12,1.12,0,0,1,1-.23A.64.64,0,0,1,721.53,553.53Zm13.32,13.54c2.35,2.06,4.86,4.1,7.43,6.06a.83.83,0,0,1,0,1.26,1.1,1.1,0,0,1-1.39.25c-2.61-2-5.13-4-7.51-6.12a.87.87,0,0,1,.13-1.28,1.18,1.18,0,0,1,1.14-.31A.77.77,0,0,1,734.85,567.07Zm15.32,11.66c2.67,1.77,5.46,3.51,8.29,5.15a.79.79,0,0,1,.09,1.23,1.17,1.17,0,0,1-1.4.38c-2.86-1.67-5.67-3.42-8.36-5.2a.82.82,0,0,1,0-1.25,1.2,1.2,0,0,1,1.22-.4A.91.91,0,0,1,750.17,578.73Zm16.94,9.87.5.25q2,1,4,2a.78.78,0,0,1,.18,1.21,1.22,1.22,0,0,1-1.38.46c-1.36-.66-2.73-1.32-4.08-2l-.51-.26a.78.78,0,0,1-.15-1.21,1.22,1.22,0,0,1,1.29-.47Z" transform="translate(-556.66 -228.69)" style="fill:#171a1e"/><path d="M737.52,379.89a1,1,0,0,1-.07-1.36c2.46-2.71,5-5.4,7.67-8a.94.94,0,0,1,1.35,0,1,1,0,0,1,0,1.36c-2.6,2.58-5.15,5.25-7.58,7.93a1,1,0,0,1-.47.28A1,1,0,0,1,737.52,379.89Zm15.6-15.6a.94.94,0,0,1,.08-1.35c2.76-2.46,5.61-4.86,8.47-7.14A1,1,0,0,1,763,356a1,1,0,0,1-.16,1.35c-2.83,2.25-5.66,4.62-8.39,7.06a1.1,1.1,0,0,1-.4.21A.94.94,0,0,1,753.12,364.29ZM770.3,350.5a1,1,0,0,1,.23-1.33c3-2.13,6.13-4.19,9.24-6.12a.94.94,0,0,1,1.32.31,1,1,0,0,1-.31,1.32c-3.08,1.91-6.15,3.95-9.14,6.05a.94.94,0,0,1-1.34-.23ZM789,338.78a1,1,0,0,1,.39-1.31c3.25-1.76,6.58-3.44,9.88-5a.93.93,0,0,1,1.27.46,1,1,0,0,1-.46,1.27c-3.26,1.53-6.55,3.19-10,5A1,1,0,0,1,789,338.78Z" transform="translate(-556.66 -228.69)" style="fill:#171a1e"/></g><g id="pen"><path d="M1174.84,755.66A11.83,11.83,0,1,1,1163,743.83,11.83,11.83,0,0,1,1174.84,755.66Z" transform="translate(-556.66 -228.69)" style="fill:#ee8a59"/><path d="M1118.37,813.57c21.54,0,39.66-20.46,43.08-48.65a1,1,0,0,1,1.12-.89,1,1,0,0,1,.88,1.13c-3.54,29.22-22.5,50.43-45.08,50.43" transform="translate(-556.66 -228.69)" style="fill:#171a1e"/><path d="M1163,765a9.35,9.35,0,1,1,9.35-9.35A9.36,9.36,0,0,1,1163,765Zm0-16.68a7.33,7.33,0,1,0,7.33,7.33A7.33,7.33,0,0,0,1163,748.33Z" transform="translate(-556.66 -228.69)" style="fill:#171a1e"/><path d="M1201.46,711.35a11.83,11.83,0,1,1-14-9.08A11.82,11.82,0,0,1,1201.46,711.35Z" transform="translate(-556.66 -228.69)" style="fill:#ee8a59"/><path d="M1158.45,779.84c21-4.53,34.46-28.35,31.87-56.63a1,1,0,0,1,.91-1.1,1,1,0,0,1,1.1.92c2.68,29.31-11.39,54-33.46,58.79" transform="translate(-556.66 -228.69)" style="fill:#171a1e"/><path d="M1191.86,723a9.35,9.35,0,1,1,7.17-11.11A9.36,9.36,0,0,1,1191.86,723Zm-3.51-16.31a7.33,7.33,0,1,0,8.71,5.62A7.34,7.34,0,0,0,1188.35,706.67Z" transform="translate(-556.66 -228.69)" style="fill:#171a1e"/><path d="M1215.46,656.91a11.83,11.83,0,1,1-16-5A11.83,11.83,0,0,1,1215.46,656.91Z" transform="translate(-556.66 -228.69)" style="fill:#ee8a59"/><path d="M1192.33,734.41c19.07-10,25.62-36.53,15.56-63.09a1,1,0,0,1,.59-1.3,1,1,0,0,1,1.3.59c10.43,27.52,3.48,55.12-16.51,65.59" transform="translate(-556.66 -228.69)" style="fill:#171a1e"/><path d="M1209.32,670.68a9.35,9.35,0,1,1,3.94-12.62A9.35,9.35,0,0,1,1209.32,670.68Zm-7.74-14.77a7.33,7.33,0,1,0,9.89,3.09A7.35,7.35,0,0,0,1201.58,655.91Z" transform="translate(-556.66 -228.69)" style="fill:#171a1e"/></g></svg>