<svg xmlns="http://www.w3.org/2000/svg" viewBox="0 0 1293.56 467.69"><g id="Contact"><line y1="352.35" x2="1136.98" y2="352.35" style="fill:none;stroke:#000;stroke-miterlimit:10;stroke-width:2px"/><path d="M1187.27,683.21l-92.13,8.64c-10.06.95-18.77-4.13-19.47-11.34l-2.1-21.8c-.69-7.2,6.9-13.81,17-14.75l92.13-8.65c10-.94,18.77,4.14,19.46,11.34l2.1,21.81C1204.91,675.66,1197.32,682.27,1187.27,683.21Z" transform="translate(-341.1 -341.53)" style="fill:#b4e0d8"/><path d="M1300.38,720.05,1221,672.51c-8.67-5.19-12.69-14.43-9-20.65L1223.21,633c3.7-6.22,13.73-7.06,22.4-1.87L1325,678.71c8.66,5.19,12.68,14.44,9,20.66l-11.21,18.82C1319.07,724.41,1309,725.24,1300.38,720.05Z" transform="translate(-341.1 -341.53)" style="fill:#b4e0d8"/><path d="M1511.89,671.87l-90.77,18c-9.91,2-19.09-2.2-20.52-9.3l-4.31-21.47c-1.42-7.1,5.46-14.45,15.36-16.41l90.77-18c9.91-2,19.1,2.2,20.52,9.3l4.31,21.48C1528.68,662.56,1521.8,669.91,1511.89,671.87Z" transform="translate(-341.1 -341.53)" style="fill:#b4e0d8"/><path d="M1025.88,706.9l-45.47,24.87c-5,2.71-11.81-.23-15.3-6.57L954.55,706c-3.49-6.34-2.29-13.69,2.67-16.4l45.47-24.87c5-2.72,11.81.22,15.3,6.57l10.56,19.19C1032,696.84,1030.84,704.18,1025.88,706.9Z" transform="translate(-341.1 -341.53)" style="fill:#b4e0d8"/><path d="M984.88,709.6l-13.82-.46-.91-1.65,7-11.86,1.1,2-5.53,9.64,11.06.32Z" transform="translate(-341.1 -341.53)" style="fill:#69b0a2"/><path d="M986.85,696.07a6,6,0,0,1,1.06-2.68,6.57,6.57,0,0,1,2.26-2,5.16,5.16,0,0,1,5.05-.12,10.42,10.42,0,0,1,4.38,4.54,11,11,0,0,1,1.56,6.33,5.27,5.27,0,0,1-2.8,4.41,5.62,5.62,0,0,1-2.89.72,5.79,5.79,0,0,1-2.84-.75l4.3,7.75-2.17,1.19-11.11-20,2.17-1.19ZM988,698.2l3.3,6a6.84,6.84,0,0,0,2.78,1.11,3.94,3.94,0,0,0,2.6-.38,3.56,3.56,0,0,0,1.88-3.16,8.39,8.39,0,0,0-1.2-4.6,8.62,8.62,0,0,0-3.23-3.51,3.54,3.54,0,0,0-3.62,0Q988.26,694.84,988,698.2Z" transform="translate(-341.1 -341.53)" style="fill:#69b0a2"/><path d="M1013.28,685.86l-7,11.91-1.12-2,5.6-9.52-11.13-.44-1.1-2,13.79.41Z" transform="translate(-341.1 -341.53)" style="fill:#69b0a2"/><rect x="1090.62" y="667.85" width="179.36" height="54.53" rx="18.94" transform="translate(-135.36 -608.98) rotate(14.15)" style="fill:#69b0a2"/><path d="M1123.47,687.67l-9.89-10,.48-1.88,13.45-4-.57,2.25-10.83,3.32,7.94,8Z" transform="translate(-341.1 -341.53)" style="fill:#b4e0d8"/><path d="M1136.81,694.66l-2.44-.62,3.62-14.16-4.79-1.23.54-2.11,7.23,1.85Zm4.54-22.72a1.62,1.62,0,0,1,1.05.79,1.65,1.65,0,0,1,.18,1.3,1.68,1.68,0,0,1-.78,1.08,1.66,1.66,0,0,1-1.31.18,1.56,1.56,0,0,1-1-.79,1.73,1.73,0,0,1-.19-1.31,1.71,1.71,0,0,1,.79-1A1.6,1.6,0,0,1,1141.35,671.94Z" transform="translate(-341.1 -341.53)" style="fill:#b4e0d8"/><path d="M1158.46,700.19l-2.44-.62,2.67-10.43a5.65,5.65,0,0,0,.1-3.32,2.53,2.53,0,0,0-1.92-1.53q-2.23-.59-5.51,1.55l-3,11.77-2.44-.62,4.16-16.27,2.43.62-.61,2.39a7.86,7.86,0,0,1,6.24-1.36c3,.77,4.1,3,3.16,6.69Z" transform="translate(-341.1 -341.53)" style="fill:#b4e0d8"/><path d="M1169.56,688a6,6,0,0,1,2.66-1.25,6.59,6.59,0,0,1,3.09,0,5.23,5.23,0,0,1,3.81,3.45,10.78,10.78,0,0,1,.06,6.44,11.28,11.28,0,0,1-3.27,5.81,5.39,5.39,0,0,1-5.16,1.34,5.8,5.8,0,0,1-2.64-1.49,5.93,5.93,0,0,1-1.57-2.54l-2.24,8.78-2.44-.62,5.81-22.7,2.43.62Zm-.62,2.42-1.72,6.76a6.81,6.81,0,0,0,1.27,2.77,4,4,0,0,0,2.18,1.54,3.68,3.68,0,0,0,3.6-1.05,8.61,8.61,0,0,0,2.33-4.27,8.91,8.91,0,0,0,.07-4.88,3.6,3.6,0,0,0-2.64-2.57C1172.31,688.23,1170.62,688.8,1168.94,690.37Z" transform="translate(-341.1 -341.53)" style="fill:#b4e0d8"/><path d="M1193.6,709.18l-2.44-.63.62-2.4a7.81,7.81,0,0,1-6.24,1.38q-4.57-1.17-3.16-6.71l2.84-11.11,2.44.62L1185,700.74a6,6,0,0,0-.14,3.27,2.48,2.48,0,0,0,2,1.58q2.24.58,5.51-1.55l3-11.75,2.44.62Z" transform="translate(-341.1 -341.53)" style="fill:#b4e0d8"/><path d="M1211.56,713a12,12,0,0,1-5.11-.11q-4.35-1.11-3.18-5.72l2.54-9.95-3.12-.79.54-2.11,3.12.8,1.14-4.45,2.37.6-1.13,4.45,5.52,1.42-.54,2.1-5.52-1.41-2.38,9.31a3.68,3.68,0,0,0,.07,2.46,2.21,2.21,0,0,0,1.57,1.28,9.73,9.73,0,0,0,4.17.12Z" transform="translate(-341.1 -341.53)" style="fill:#b4e0d8"/><path d="M1233.87,695.56,1218.46,716l-2.3-.59L1231.53,695Z" transform="translate(-341.1 -341.53)" style="fill:#b4e0d8"/><path d="M1249,712.29l-13.47,4,.59-2.29,10.79-3.18-7.91-8.11.58-2.24,9.9,9.93Z" transform="translate(-341.1 -341.53)" style="fill:#b4e0d8"/><rect x="1352.75" y="667.85" width="179.36" height="54.53" rx="18.94" transform="translate(-127.4 -673.06) rotate(14.15)" style="fill:#69b0a2"/><path d="M1420.78,696.66l-9.89-10,.48-1.87,13.45-4-.57,2.24-10.83,3.32,7.94,8Z" transform="translate(-341.1 -341.53)" style="fill:#b4e0d8"/><path d="M1438.18,704.69l-2.44-.62,2.67-10.43a5.79,5.79,0,0,0,.11-3.33,2.59,2.59,0,0,0-1.93-1.53q-2.23-.57-5.5,1.56l-3,11.77-2.44-.63,5.63-22,2.44.62-2.08,8.15a7.85,7.85,0,0,1,6.23-1.37q4.58,1.17,3.16,6.7Z" transform="translate(-341.1 -341.53)" style="fill:#b4e0d8"/><path d="M1455.77,709.18l-11.59-3,.57-2.23,4.67,1.19,4.37-17.11-5,1.08.65-2.56,5.39-1.23,2.2.56L1452,705.84l4.36,1.11Z" transform="translate(-341.1 -341.53)" style="fill:#b4e0d8"/><path d="M1475.94,703.3l-13.47,4,.59-2.29,10.79-3.18-7.91-8.11.58-2.25,9.9,9.94Z" transform="translate(-341.1 -341.53)" style="fill:#b4e0d8"/><path d="M1241.45,739l-123.1-33c-13.44-3.6-22.72-12.61-20.73-20.14l6-22.76c2-7.52,14.5-10.71,27.94-7.11l123.1,33c13.44,3.59,22.71,12.61,20.72,20.13l-6,22.77C1267.4,739.42,1254.89,742.6,1241.45,739Z" transform="translate(-341.1 -341.53)" style="fill:none;stroke:#000;stroke-miterlimit:10;stroke-width:2px"/><path d="M1028.72,706.81l-47.48,27.73c-5.19,3-12.12.82-15.49-4.92l-10.2-17.38c-3.37-5.75-1.91-12.85,3.28-15.88l47.48-27.72c5.18-3,12.12-.82,15.49,4.92l10.2,17.38C1035.37,696.68,1033.9,703.79,1028.72,706.81Z" transform="translate(-341.1 -341.53)" style="fill:none;stroke:#000;stroke-miterlimit:10;stroke-width:2px"/><path d="M1132.08,748.14l-93,15.88a18.64,18.64,0,0,1-21.54-15.11l-5.28-30.49A18.53,18.53,0,0,1,1027.51,697l93-15.88A18.64,18.64,0,0,1,1142,696.27l5.28,30.49A18.53,18.53,0,0,1,1132.08,748.14Z" transform="translate(-341.1 -341.53)" style="fill:#69b0a2"/><path d="M1051.11,736.88,1038.19,732l-.33-1.86,10.47-8.94.39,2.24-8.37,7.31,10.35,3.9Z" transform="translate(-341.1 -341.53)" style="fill:#b4e0d8"/><path d="M1069.9,737.05l-2.43.42-.41-2.32a5.87,5.87,0,0,1-1.8,2.34,6.07,6.07,0,0,1-2.81,1.29,5.12,5.12,0,0,1-4.86-1.71,11.43,11.43,0,0,1-2.73-6,9.91,9.91,0,0,1,.65-6.18,5.39,5.39,0,0,1,4.08-3.12,6.05,6.05,0,0,1,5.39,1.62l-1.38-7.82,2.44-.42Zm-3.31-4.53-1.18-6.71q-2.25-2.49-4.71-2.06a3.68,3.68,0,0,0-2.88,2.33,8.12,8.12,0,0,0-.37,4.69,8.86,8.86,0,0,0,1.91,4.43,3.45,3.45,0,0,0,3.35,1.3,4.06,4.06,0,0,0,1.77-.82,6.2,6.2,0,0,0,1.5-1.8A3.78,3.78,0,0,0,1066.59,732.52Z" transform="translate(-341.1 -341.53)" style="fill:#b4e0d8"/><path d="M1083.5,734.68l-2.43.43L1078.58,721l-4.79.83-.37-2.09,7.23-1.26Zm-5.12-22.07a1.68,1.68,0,0,1,1.95,1.37,1.65,1.65,0,0,1-1.36,2,1.59,1.59,0,0,1-1.22-.31,1.69,1.69,0,0,1-.7-1.09,1.62,1.62,0,0,1,.29-1.25A1.58,1.58,0,0,1,1078.38,712.61Z" transform="translate(-341.1 -341.53)" style="fill:#b4e0d8"/><path d="M1103.05,714.62l-3.32,17.24-2.22.38-9-15.09,2.65-.47,6.88,12.06,2.34-13.66Z" transform="translate(-341.1 -341.53)" style="fill:#b4e0d8"/><path d="M1120.89,717.56l-10.46,9-.4-2.29,8.39-7.17-10.37-4-.4-2.24,12.91,4.87Z" transform="translate(-341.1 -341.53)" style="fill:#b4e0d8"/><path d="M1128.25,751.25l-88.36,17.48a18.06,18.06,0,0,1-21-14.39l-6-29.82a18,18,0,0,1,13.9-21.29l88.36-17.48a18,18,0,0,1,21,14.39l6,29.81A18,18,0,0,1,1128.25,751.25Z" transform="translate(-341.1 -341.53)" style="fill:none;stroke:#000;stroke-miterlimit:10;stroke-width:2px"/><path d="M1464.6,729.47,1405.73,713c-6.43-1.8-9.76-10-7.44-18.4l7-25.3c2.33-8.36,9.42-13.68,15.84-11.88l58.88,16.5c6.42,1.8,9.75,10,7.43,18.4l-7,25.3C1478.12,726,1471,731.27,1464.6,729.47Z" transform="translate(-341.1 -341.53)" style="fill:none;stroke:#000;stroke-miterlimit:10;stroke-width:2px"/><path d="M1610.72,690.71c-15.47-45.71-51.15-148.87-61.36-159.08-2.4-2.4-17-2.15-19.07-.08-9.84,9.83-45.77,113.32-61.35,159.14-14.65,5.18-23.55,12-23.55,19.42,0,16.23,42.27,29.39,94.42,29.39s94.41-13.16,94.41-29.39C1634.22,702.67,1625.34,695.88,1610.72,690.71Zm-93-134a174.9,174.9,0,0,0,22.09,1.4,172.8,172.8,0,0,0,22.19-1.42c3.22,7.67,6.77,16.65,10.46,26.35a174.19,174.19,0,0,1-65.17,0C1511,573.35,1514.52,564.37,1517.72,556.7ZM1497,610.86a173.3,173.3,0,0,0,85.81,0c3.06,8.44,6.12,17,9.09,25.4a173,173,0,0,1-104,0C1490.83,627.87,1493.9,619.3,1497,610.86Zm42.84,95.57A171.25,171.25,0,0,1,1468.49,691l.46-.17c2.56-7.53,5.67-16.62,9.13-26.6a172.69,172.69,0,0,0,123.54,0c3.44,10,6.55,19.11,9.1,26.65l.41.15A171.29,171.29,0,0,1,1539.81,706.43Z" transform="translate(-341.1 -341.53)" style="fill:#ee8a59"/><path d="M1610.72,690.84c-2.55-7.54-5.66-16.66-9.1-26.66a172.62,172.62,0,0,1-123.54,0c-3.46,10-6.57,19.07-9.13,26.6l-.46.17a172.44,172.44,0,0,0,142.64,0Zm-28-80a173.26,173.26,0,0,1-85.8,0c-3.07,8.44-6.14,17-9.11,25.4a172.93,172.93,0,0,0,104,0C1588.9,627.83,1585.84,619.27,1582.77,610.83ZM1562,556.68a173.92,173.92,0,0,1-44.28,0c-3.2,7.68-6.74,16.66-10.43,26.36a173.91,173.91,0,0,0,65.17,0C1568.77,573.32,1565.22,564.35,1562,556.68Z" transform="translate(-341.1 -341.53)" style="fill:#fff"/><path d="M1582.06,611c10.69,29.4,21.33,60.41,28.1,80.42,14.62,5.17,23.5,12,23.5,19.4,0,16.23-42.27,29.39-94.41,29.39a283,283,0,0,1-36.75-2.31" transform="translate(-341.1 -341.53)" style="fill:none;stroke:#000;stroke-miterlimit:10;stroke-width:2px"/><path d="M1456.64,725.07c-7.52-4.22-11.8-9.08-11.8-14.24,0-7.44,8.89-14.24,23.54-19.42,15.59-45.82,51.51-149.3,61.35-159.14,2.06-2.07,16.67-2.32,19.07.08,1.57,1.57,3.75,5.34,6.36,10.77" transform="translate(-341.1 -341.53)" style="fill:none;stroke:#000;stroke-miterlimit:10;stroke-width:2px"/><path d="M554.21,690.71C538.74,645,503.06,541.84,492.85,531.63c-2.4-2.4-17-2.15-19.08-.08-9.84,9.83-45.76,113.32-61.34,159.14-14.65,5.18-23.55,12-23.55,19.42,0,16.23,42.27,29.39,94.41,29.39s94.42-13.16,94.42-29.39C577.71,702.67,568.83,695.88,554.21,690.71Zm-93-134a174.86,174.86,0,0,0,22.08,1.4,172.84,172.84,0,0,0,22.2-1.42c3.22,7.67,6.77,16.65,10.46,26.35a174.19,174.19,0,0,1-65.17,0C454.47,573.35,458,564.37,461.21,556.7Zm-20.75,54.16a173.26,173.26,0,0,0,85.8,0c3.07,8.44,6.13,17,9.09,25.4a173,173,0,0,1-104,0C434.32,627.87,437.39,619.3,440.46,610.86Zm42.83,95.57A171.21,171.21,0,0,1,412,691l.45-.17c2.56-7.53,5.68-16.62,9.14-26.6a172.69,172.69,0,0,0,123.54,0c3.44,10,6.55,19.11,9.1,26.65l.41.15A171.3,171.3,0,0,1,483.29,706.43Z" transform="translate(-341.1 -341.53)" style="fill:#ee8a59"/><path d="M554.21,690.84c-2.55-7.54-5.66-16.66-9.1-26.66a172.65,172.65,0,0,1-123.55,0c-3.45,10-6.57,19.07-9.13,26.6L412,691a172.44,172.44,0,0,0,142.64,0Zm-28-80a173.26,173.26,0,0,1-85.8,0c-3.07,8.44-6.14,17-9.11,25.4a172.9,172.9,0,0,0,104,0C532.39,627.83,529.33,619.27,526.26,610.83Zm-20.77-54.15a173.92,173.92,0,0,1-44.28,0c-3.2,7.68-6.74,16.66-10.43,26.36A173.91,173.91,0,0,0,516,583C512.26,573.32,508.71,564.35,505.49,556.68Z" transform="translate(-341.1 -341.53)" style="fill:#fff"/><path d="M550.34,680c1.3,3.82,2.51,7.39,3.62,10.67,14.62,5.17,23.5,12,23.5,19.4,0,12.62-25.59,23.39-61.51,27.55" transform="translate(-341.1 -341.53)" style="fill:none;stroke:#000;stroke-miterlimit:10;stroke-width:2px"/><path d="M440.18,610.76C454,572.65,468,537.11,473.52,531.55c2.07-2.07,16.68-2.32,19.08.09,2.17,2.16,5.48,8.52,9.51,17.63" transform="translate(-341.1 -341.53)" style="fill:none;stroke:#000;stroke-miterlimit:10;stroke-width:2px"/><path d="M388.63,710.11c0-3.7,2.2-7.24,6.2-10.5s10-6.32,17.35-8.92c3.07-9,6.92-20.28,11.21-32.62" transform="translate(-341.1 -341.53)" style="fill:none;stroke:#000;stroke-miterlimit:10;stroke-width:2px"/><path d="M1433.17,742.93c-21-62.1-69.49-202.27-83.36-216.14-3.27-3.27-23.11-2.93-25.92-.12-13.37,13.37-62.18,154-83.35,216.23-19.91,7-32,16.28-32,26.39,0,22.05,57.43,39.93,128.28,39.93s128.28-17.88,128.28-39.93C1465.1,759.19,1453,750,1433.17,742.93ZM1306.82,560.84a236.67,236.67,0,0,0,60.17,0c4.37,10.42,9.19,22.62,14.2,35.8a236.57,236.57,0,0,1-88.55,0C1297.66,583.47,1302.47,571.27,1306.82,560.84Zm-28.2,73.6a235.47,235.47,0,0,0,116.59,0c4.16,11.46,8.32,23.1,12.35,34.51a235.2,235.2,0,0,1-141.32.05C1270.28,657.55,1274.45,645.91,1278.62,634.44Zm58.2,129.85a232.81,232.81,0,0,1-96.9-21l.62-.23c3.48-10.24,7.72-22.59,12.41-36.15a234.63,234.63,0,0,0,167.86-.05c4.68,13.59,8.9,26,12.37,36.22l.56.2A232.75,232.75,0,0,1,1336.82,764.29Z" transform="translate(-341.1 -341.53)" style="fill:#ee8a59"/><path d="M1433.18,743.11c-3.47-10.25-7.69-22.64-12.37-36.22a234.63,234.63,0,0,1-167.86.05c-4.69,13.56-8.93,25.91-12.41,36.15-.2.07-.41.14-.62.23a234.34,234.34,0,0,0,193.81,0Zm-38-108.72a235.63,235.63,0,0,1-116.59.05c-4.17,11.47-8.34,23.11-12.38,34.52a235.1,235.1,0,0,0,141.32-.06C1403.53,657.5,1399.37,645.86,1395.21,634.39ZM1367,560.82a236.59,236.59,0,0,1-60.16,0c-4.35,10.43-9.16,22.63-14.18,35.82a236.57,236.57,0,0,0,88.55,0C1376.17,583.44,1371.36,571.24,1367,560.82Z" transform="translate(-341.1 -341.53)" style="fill:#fff"/><path d="M1313.36,547.93c6.12-14.22,11.13-24.16,14.23-27.26,2.81-2.81,22.66-3.15,25.92.12,13.88,13.87,62.35,154,83.37,216.14,19.87,7,31.93,16.26,31.93,26.36,0,22.06-57.43,39.93-128.28,39.93s-128.28-17.87-128.28-39.93c0-10.11,12.08-19.35,32-26.38,2.82-8.3,6.14-18,9.79-28.6" transform="translate(-341.1 -341.53)" style="fill:none;stroke:#000;stroke-miterlimit:10;stroke-width:2px"/><rect x="249.21" y="10.87" width="597.25" height="276.12" rx="36.16" style="fill:#d3b051"/><rect x="261.73" y="1" width="597.25" height="276.12" rx="36.16" style="fill:none;stroke:#000;stroke-miterlimit:10;stroke-width:2px"/><path d="M840.1,444.76q0,8.37-3.4,12.24t-10.34,3.86q-14,0-14-16V411.71H818v32.68q0,11.55,8.38,11.55c2.8,0,4.85-.91,6.17-2.74s2-4.78,2-8.88V411.71h5.61Z" transform="translate(-341.1 -341.53)"/><path d="M879.29,459.94h-6.22l-17.3-38.08v38.08h-5.6V411.71h6.25l17.36,37.73V411.71h5.51Z" transform="translate(-341.1 -341.53)"/><path d="M889.39,411.71h9.5q9.47,0,15.18,6.44t5.71,17.69q0,11.49-5.8,17.79a19.24,19.24,0,0,1-14.85,6.31h-9.74ZM895,455.05h4A13.1,13.1,0,0,0,909.83,450q4-5.1,4-14.12t-4-14.1A13,13,0,0,0,899,416.6h-4Z" transform="translate(-341.1 -341.53)"/><path d="M954.69,459.94H929.5V411.71h25v4.89H935.11v14.93h18.63v4.89H935.11v18.63h19.58Z" transform="translate(-341.1 -341.53)"/><path d="M999.39,459.94h-7L978.23,438H972v21.91H966.4V411.71H980q6.87,0,10.85,3.33a11.43,11.43,0,0,1,4,9.28,11.81,11.81,0,0,1-2.91,7.85,14.6,14.6,0,0,1-8,4.66ZM972,433.14h7.07a10.59,10.59,0,0,0,7.22-2.41,7.72,7.72,0,0,0,2.76-6.07q0-8.06-9.84-8.06H972Z" transform="translate(-341.1 -341.53)"/><path d="M668.56,540.93a22.54,22.54,0,0,1-13.16,3.93q-9.36,0-14.24-6.43t-4.87-18.59q0-11.76,4.72-18.41t14.39-6.64a27,27,0,0,1,6.9.89,16.91,16.91,0,0,1,5.51,2.35L666,502.44a21,21,0,0,0-10.56-2.73q-6.66,0-9.91,4.83t-3.25,15.3q0,20.1,13.16,20.1a22.58,22.58,0,0,0,11.42-3.42Z" transform="translate(-341.1 -341.53)"/><path d="M691.38,494.79q8.1,0,12.35,6.4T708,519.84q0,12.17-4.24,18.59t-12.37,6.43a13.88,13.88,0,0,1-12.32-6.41q-4.26-6.41-4.26-18.61T679,501.21Q683.27,494.79,691.38,494.79Zm0,45.15q10.67,0,10.66-20.1t-10.66-20.13c-3.47,0-6.1,1.74-7.92,5.21s-2.71,8.45-2.71,14.92.9,11.52,2.7,14.95S687.89,539.94,691.38,539.94Z" transform="translate(-341.1 -341.53)"/><path d="M716.11,495.71h9.5q9.46,0,15.18,6.44t5.71,17.69q0,11.49-5.8,17.79a19.24,19.24,0,0,1-14.85,6.31h-9.74Zm5.6,43.34h4A13.1,13.1,0,0,0,736.55,534q4-5.1,4-14.12t-4-14.1a13,13,0,0,0-10.85-5.14h-4Z" transform="translate(-341.1 -341.53)"/><path d="M781.41,543.94H756.22V495.71h25v4.89H761.83v14.93h18.63v4.89H761.83v18.63h19.58Z" transform="translate(-341.1 -341.53)"/><path d="M816.78,527.29H796.47V522.1h20.31Z" transform="translate(-341.1 -341.53)"/><path d="M855.76,501a25.28,25.28,0,0,0-8.17-1.47,11.82,11.82,0,0,0-7.12,2,6.6,6.6,0,0,0-2.76,5.69q0,4.38,7.22,7.69,5.33,2.46,7.05,3.42a18.22,18.22,0,0,1,3.51,2.63,13.14,13.14,0,0,1,2.85,4,11.78,11.78,0,0,1,1.08,5.11q0,7-4.74,10.92a17,17,0,0,1-11.16,3.88,23.12,23.12,0,0,1-10.9-2.46l1.16-4.82a23.94,23.94,0,0,0,9.61,2.49,11.37,11.37,0,0,0,7.67-2.47,8.52,8.52,0,0,0,2.89-6.82,8.21,8.21,0,0,0-1.88-5.45c-1.25-1.5-3.57-3-6.94-4.57s-5.7-2.68-6.72-3.26a14.24,14.24,0,0,1-3-2.41,11.27,11.27,0,0,1-2.32-3.45,10.45,10.45,0,0,1-.82-4.17,11.14,11.14,0,0,1,4.3-9.33,17.2,17.2,0,0,1,10.91-3.35,32.24,32.24,0,0,1,9.57,1.47Z" transform="translate(-341.1 -341.53)"/><path d="M901.72,500.26H886.85v43.68h-5.57V500.26H866.34v-4.55h35.38Z" transform="translate(-341.1 -341.53)"/><path d="M941.63,543.94h-7L920.47,522h-6.22v21.91h-5.61V495.71h13.64q6.87,0,10.85,3.33a11.43,11.43,0,0,1,4,9.28,11.81,11.81,0,0,1-2.91,7.85,14.6,14.6,0,0,1-8,4.66Zm-27.38-26.8h7.07a10.59,10.59,0,0,0,7.22-2.41,7.72,7.72,0,0,0,2.76-6.07q0-8.06-9.84-8.06h-7.21Z" transform="translate(-341.1 -341.53)"/><path d="M974.87,528.76q0,8.37-3.4,12.24t-10.34,3.86q-14,0-14-16V495.71h5.61v32.68q0,11.55,8.37,11.55,4.2,0,6.17-2.74t2-8.88V495.71h5.61Z" transform="translate(-341.1 -341.53)"/><path d="M1015.12,540.93a22.54,22.54,0,0,1-13.16,3.93q-9.36,0-14.24-6.43t-4.87-18.59q0-11.76,4.72-18.41t14.39-6.64a27,27,0,0,1,6.91.89,17,17,0,0,1,5.5,2.35l-1.85,4.41a21,21,0,0,0-10.56-2.73q-6.66,0-9.91,4.83t-3.25,15.3q0,20.1,13.16,20.1a22.58,22.58,0,0,0,11.42-3.42Z" transform="translate(-341.1 -341.53)"/><path d="M1055.75,500.26h-14.87v43.68h-5.57V500.26h-14.94v-4.55h35.38Z" transform="translate(-341.1 -341.53)"/><path d="M1087.25,543.94h-21.91v-4.89h8.3V500.6h-8.3v-4.89h21.91v4.89h-8v38.45h8Z" transform="translate(-341.1 -341.53)"/><path d="M1115,494.79q8.1,0,12.36,6.4t4.25,18.65q0,12.17-4.24,18.59T1115,544.86a13.89,13.89,0,0,1-12.32-6.41q-4.26-6.41-4.26-18.61t4.24-18.63Q1106.86,494.79,1115,494.79Zm0,45.15q10.66,0,10.67-20.1T1115,499.71q-5.19,0-7.91,5.21t-2.72,14.92q0,9.81,2.7,14.95T1115,539.94Z" transform="translate(-341.1 -341.53)"/><path d="M1168.09,543.94h-6.22l-17.3-38.08v38.08H1139V495.71h6.25l17.36,37.73V495.71h5.51Z" transform="translate(-341.1 -341.53)"/><polygon points="727.95 1 722.55 57.13 708.11 57.13 713.41 1 727.95 1"/><polygon points="820.05 1 814.66 57.13 800.22 57.13 805.51 1 820.05 1"/><polygon points="759.65 1 752.21 78.49 737.81 78.49 745.12 1 759.65 1"/><polygon points="791.33 1 781.91 99.03 767.54 99.03 776.79 1 791.33 1"/></g></svg>