<?xml version="1.0" encoding="UTF-8"?>
<svg width="26px" height="26px" viewBox="0 0 26 26" version="1.1" xmlns="http://www.w3.org/2000/svg" xmlns:xlink="http://www.w3.org/1999/xlink">
    <!-- Generator: Sketch 52.6 (67491) - http://www.bohemiancoding.com/sketch -->
    <title>linkedin</title>
    <desc>Created with Sketch.</desc>
    <g id="linkedin" stroke="none" stroke-width="1" fill="none" fill-rule="evenodd">
        <g transform="translate(4.000000, 4.000000)" fill="#D3B050" fill-rule="nonzero" id="Path">
            <path d="M2.18287353,0.00933837188 C0.862976081,0.00933837188 0,0.876049819 0,2.01522218 C0,3.12923585 0.837268059,4.0206665 2.13222656,4.0206665 L2.15727539,4.0206665 C3.50299072,4.0206665 4.34047852,3.12923585 4.34047852,2.01522218 C4.31531983,0.876049819 3.50299072,0.00933837188 2.18287353,0.00933837188 Z"></path>
            <polygon points="0.228076172 5.60566406 4.08669435 5.60566406 4.08669435 17.2144775 0.228076172 17.2144775"></polygon>
            <path d="M13.5577881,5.33320313 C11.4762085,5.33320313 10.0803955,7.28920898 10.0803955,7.28920898 L10.0803955,5.60566406 L6.22166749,5.60566406 L6.22166749,17.2144775 L10.0801758,17.2144775 L10.0801758,10.731665 C10.0801758,10.3846069 10.1053345,10.0380981 10.2072876,9.78991701 C10.4862305,9.0968994 11.1210205,8.37894288 12.1870239,8.37894288 C13.5832764,8.37894288 14.1417114,9.44351806 14.1417114,11.004126 L14.1417114,17.2144775 L18,17.2144775 L18,10.5581909 C18,6.99246827 16.0962891,5.33320313 13.5577881,5.33320313 Z"></path>
        </g>
    </g>
</svg>